<svg width="38" height="38" viewBox="0 0 38 38" fill="none" xmlns="http://www.w3.org/2000/svg">
<rect width="38" height="38" rx="5" fill="#EC4E2C"/>
<path fill-rule="evenodd" clip-rule="evenodd" d="M15.25 11.5C15.6642 11.5 16 11.8358 16 12.25V13H22V12.25C22 11.8358 22.3358 11.5 22.75 11.5C23.1642 11.5 23.5 11.8358 23.5 12.25V13H24.25C25.4926 13 26.5 14.0074 26.5 15.25V24.25C26.5 25.4926 25.4926 26.5 24.25 26.5H13.75C12.5074 26.5 11.5 25.4926 11.5 24.25V15.25C11.5 14.0074 12.5074 13 13.75 13H14.5V12.25C14.5 11.8358 14.8358 11.5 15.25 11.5ZM22 14.5V15.25C22 15.6642 22.3358 16 22.75 16C23.1642 16 23.5 15.6642 23.5 15.25V14.5H24.25C24.6642 14.5 25 14.8358 25 15.25V17.5H13V15.25C13 14.8358 13.3358 14.5 13.75 14.5H14.5V15.25C14.5 15.6642 14.8358 16 15.25 16C15.6642 16 16 15.6642 16 15.25V14.5H22ZM13 19V24.25C13 24.6642 13.3358 25 13.75 25H24.25C24.6642 25 25 24.6642 25 24.25V19H13Z" fill="#FCFCFC"/>
</svg>
