<svg width="20" height="16" viewBox="0 0 20 16" fill="none" xmlns="http://www.w3.org/2000/svg">
<path d="M16.4377 4.20671C15.8267 2.80272 14.7722 1.63779 13.4358 0.890438C12.0994 0.143088 10.5548 -0.145456 9.03868 0.0690207C7.52259 0.283498 6.11864 0.989165 5.04197 2.07789C3.9653 3.16661 3.2753 4.57833 3.07771 6.09671C2.1243 6.32503 1.28793 6.89555 0.72745 7.6999C0.166966 8.50426 -0.0786034 9.48644 0.0373762 10.4599C0.153356 11.4334 0.622807 12.3304 1.35658 12.9806C2.09035 13.6307 3.03734 13.9888 4.01771 13.9867C4.28293 13.9867 4.53728 13.8814 4.72482 13.6938C4.91236 13.5063 5.01771 13.2519 5.01771 12.9867C5.01771 12.7215 4.91236 12.4671 4.72482 12.2796C4.53728 12.0921 4.28293 11.9867 4.01771 11.9867C3.48728 11.9867 2.97857 11.776 2.6035 11.4009C2.22843 11.0259 2.01771 10.5171 2.01771 9.98671C2.01771 9.45628 2.22843 8.94757 2.6035 8.5725C2.97857 8.19743 3.48728 7.98671 4.01771 7.98671C4.28293 7.98671 4.53728 7.88135 4.72482 7.69382C4.91236 7.50628 5.01771 7.25193 5.01771 6.98671C5.02027 5.80399 5.442 4.66046 6.20798 3.75929C6.97397 2.85813 8.0346 2.25766 9.20146 2.06459C10.3683 1.87151 11.5658 2.09832 12.5813 2.70472C13.5967 3.31112 14.3643 4.25785 14.7477 5.37671C14.8049 5.54855 14.9076 5.70164 15.045 5.81964C15.1824 5.93765 15.3492 6.01613 15.5277 6.04671C16.1938 6.17258 16.7976 6.52031 17.2407 7.03325C17.6839 7.54618 17.9403 8.19407 17.9681 8.87135C17.9959 9.54863 17.7936 10.2154 17.394 10.7629C16.9944 11.3105 16.4212 11.7066 15.7677 11.8867C15.5105 11.953 15.2901 12.1188 15.155 12.3476C15.02 12.5764 14.9814 12.8495 15.0477 13.1067C15.114 13.364 15.2798 13.5844 15.5086 13.7194C15.7374 13.8544 16.0105 13.893 16.2677 13.8267C17.3201 13.5486 18.253 12.9347 18.9247 12.0782C19.5964 11.2217 19.9703 10.1693 19.9895 9.08098C20.0088 7.99264 19.6723 6.92775 19.0313 6.04803C18.3902 5.16831 17.4796 4.52181 16.4377 4.20671ZM10.7277 6.27671C10.6326 6.18567 10.5205 6.11431 10.3977 6.06671C10.1543 5.96669 9.88117 5.96669 9.63771 6.06671C9.51496 6.11431 9.40282 6.18567 9.30771 6.27671L6.30771 9.27671C6.11941 9.46502 6.01362 9.72041 6.01362 9.98671C6.01362 10.253 6.11941 10.5084 6.30771 10.6967C6.49602 10.885 6.75141 10.9908 7.01771 10.9908C7.28401 10.9908 7.53941 10.885 7.72771 10.6967L9.01771 9.39671V14.9867C9.01771 15.2519 9.12307 15.5063 9.31061 15.6938C9.49814 15.8814 9.7525 15.9867 10.0177 15.9867C10.2829 15.9867 10.5373 15.8814 10.7248 15.6938C10.9124 15.5063 11.0177 15.2519 11.0177 14.9867V9.39671L12.3077 10.6967C12.4007 10.7904 12.5113 10.8648 12.6331 10.9156C12.755 10.9664 12.8857 10.9925 13.0177 10.9925C13.1497 10.9925 13.2804 10.9664 13.4023 10.9156C13.5241 10.8648 13.6347 10.7904 13.7277 10.6967C13.8214 10.6037 13.8958 10.4931 13.9466 10.3713C13.9974 10.2494 14.0235 10.1187 14.0235 9.98671C14.0235 9.8547 13.9974 9.72399 13.9466 9.60213C13.8958 9.48028 13.8214 9.36967 13.7277 9.27671L10.7277 6.27671Z" fill="#475BE8"/>
</svg>
