<svg width="14" height="14" viewBox="0 0 14 14" fill="none" xmlns="http://www.w3.org/2000/svg">
<path d="M0.324546 4.69457C-0.502947 3.03392 0.331984 1.20118 1.92298 0.246581C2.68897 -0.213016 3.67896 -0.013558 4.20722 0.706801L5.37922 2.30498C5.87805 2.98521 5.95451 3.8873 5.57727 4.64178L5.26997 5.25637C5.18102 5.43428 5.16695 5.64009 5.25795 5.81696C5.42373 6.13921 5.77677 6.71029 6.45687 7.39039C7.13696 8.07048 7.70804 8.42352 8.03029 8.58931C8.20717 8.6803 8.41297 8.66624 8.59088 8.57728L9.20547 8.26999C9.95995 7.89275 10.862 7.9692 11.5423 8.46803L13.1405 9.64003C13.8608 10.1683 14.0603 11.1583 13.6007 11.9243C12.6461 13.5153 10.8133 14.3502 9.15268 13.5227C7.75309 12.8253 5.96459 11.6711 4.07038 9.77687C2.17617 7.88266 1.02196 6.09417 0.324546 4.69457Z" fill="#808191"/>
</svg>
