<svg width="15" height="15" viewBox="0 0 15 15" fill="none" xmlns="http://www.w3.org/2000/svg">
<path fill-rule="evenodd" clip-rule="evenodd" d="M4.52537 3.14236L3.39465 1.60047C3.31776 1.49561 3.17245 1.46889 3.06328 1.53953C1.58396 2.49673 1.17732 3.95893 1.77081 5.03683C2.41988 6.21566 3.42095 7.66136 4.95647 9.19688C6.492 10.7324 7.93769 11.7335 9.11653 12.3825C10.1944 12.976 11.6566 12.5694 12.6138 11.0901C12.6845 10.9809 12.6577 10.8356 12.5529 10.7587L11.011 9.62798C10.7843 9.4617 10.4836 9.43622 10.2321 9.56197L9.61747 9.86926C9.09474 10.1306 8.37816 10.2225 7.69985 9.87348C7.24635 9.64017 6.54738 9.1968 5.75197 8.40139C4.95656 7.60597 4.51318 6.90701 4.27987 6.45351C3.93091 5.77519 4.02273 5.05862 4.28409 4.53589L4.59139 3.9213C4.71714 3.6698 4.69165 3.36911 4.52537 3.14236ZM2.2484 0.280171C0.343018 1.51307 -0.637801 3.77227 0.456823 5.76032C1.17122 7.05779 2.25634 8.61807 3.89581 10.2575C5.53528 11.897 7.09556 12.9821 8.39304 13.6965C10.3811 14.7912 12.6403 13.8103 13.8732 11.905C14.3754 11.1288 14.1854 10.0958 13.4399 9.5491L11.898 8.41837C11.2178 7.91954 10.3157 7.84309 9.56124 8.22032L8.94665 8.52762C8.76874 8.61658 8.56293 8.63064 8.38605 8.53965C8.0638 8.37386 7.49273 8.02082 6.81263 7.34073C6.13253 6.66063 5.7795 6.08955 5.61371 5.7673C5.52271 5.59043 5.53678 5.38462 5.62574 5.20671L5.93303 4.59212C6.31027 3.83764 6.23381 2.93554 5.73498 2.25532L4.60426 0.713421C4.05759 -0.032039 3.02452 -0.222023 2.2484 0.280171Z" fill="#FCFCFC"/>
</svg>
