<svg width="16" height="14" viewBox="0 0 16 14" fill="none" xmlns="http://www.w3.org/2000/svg">
<path fill-rule="evenodd" clip-rule="evenodd" d="M0.5 4C0.5 2.75736 1.50736 1.75 2.75 1.75H4.31598C4.50537 1.75 4.6785 1.643 4.7632 1.47361L4.85676 1.28647C5.17437 0.651254 5.82362 0.25 6.53381 0.25H9.46619C10.1764 0.25 10.8256 0.651254 11.1432 1.28647L11.2368 1.47361C11.3215 1.643 11.4946 1.75 11.684 1.75H13.25C14.4926 1.75 15.5 2.75736 15.5 4V11.5C15.5 12.7426 14.4926 13.75 13.25 13.75H2.75C1.50736 13.75 0.5 12.7426 0.5 11.5V4ZM8 10.75C9.65685 10.75 11 9.40685 11 7.75C11 6.09315 9.65685 4.75 8 4.75C6.34315 4.75 5 6.09315 5 7.75C5 9.40685 6.34315 10.75 8 10.75ZM12.5 5.5C12.9142 5.5 13.25 5.16421 13.25 4.75C13.25 4.33579 12.9142 4 12.5 4C12.0858 4 11.75 4.33579 11.75 4.75C11.75 5.16421 12.0858 5.5 12.5 5.5Z" fill="#808191"/>
</svg>
