<svg width="15" height="15" viewBox="0 0 15 15" fill="none" xmlns="http://www.w3.org/2000/svg">
<path d="M13.4697 14.5303C13.7626 14.8232 14.2374 14.8232 14.5303 14.5303C14.8232 14.2374 14.8232 13.7626 14.5303 13.4697L13.4697 14.5303ZM11.75 6.875C11.75 9.56739 9.56739 11.75 6.875 11.75V13.25C10.3958 13.25 13.25 10.3958 13.25 6.875H11.75ZM6.875 11.75C4.18261 11.75 2 9.56739 2 6.875H0.5C0.5 10.3958 3.35418 13.25 6.875 13.25V11.75ZM2 6.875C2 4.18261 4.18261 2 6.875 2V0.5C3.35418 0.5 0.5 3.35418 0.5 6.875H2ZM6.875 2C9.56739 2 11.75 4.18261 11.75 6.875H13.25C13.25 3.35418 10.3958 0.5 6.875 0.5V2ZM14.5303 13.4697L11.3896 10.329L10.329 11.3896L13.4697 14.5303L14.5303 13.4697Z" fill="#808191"/>
</svg>
