<svg width="38" height="38" viewBox="0 0 38 38" fill="none" xmlns="http://www.w3.org/2000/svg">
<rect width="38" height="38" rx="5" fill="#38B259"/>
<path fill-rule="evenodd" clip-rule="evenodd" d="M25 14.628V13.75C25 12.5074 23.9926 11.5 22.75 11.5H13.75C12.5074 11.5 11.5 12.5074 11.5 13.75V24.25C11.5 25.4926 12.5074 26.5 13.75 26.5H24.25C25.4926 26.5 26.5 25.4926 26.5 24.25V16.75C26.5 15.7703 25.8739 14.9369 25 14.628ZM13 13.75C13 13.3358 13.3358 13 13.75 13H22.75C23.1642 13 23.5 13.3358 23.5 13.75V14.5H13.75C13.3358 14.5 13 14.1642 13 13.75ZM13 15.872C13.2346 15.9549 13.487 16 13.75 16H24.25C24.6642 16 25 16.3358 25 16.75V18.25H22.75C21.5074 18.25 20.5 19.2574 20.5 20.5C20.5 21.7426 21.5074 22.75 22.75 22.75H25V24.25C25 24.6642 24.6642 25 24.25 25H13.75C13.3358 25 13 24.6642 13 24.25V15.872ZM22.75 19.75H25V21.25H22.75C22.3358 21.25 22 20.9142 22 20.5C22 20.0858 22.3358 19.75 22.75 19.75Z" fill="#FCFCFC"/>
</svg>
