<svg width="16" height="18" viewBox="0 0 16 18" fill="none" xmlns="http://www.w3.org/2000/svg">
<path fill-rule="evenodd" clip-rule="evenodd" d="M5.82054 2.64765C5.68386 3.0577 5.37187 3.38004 4.99424 3.59032C4.9355 3.62302 4.87735 3.65665 4.81981 3.6912C4.44879 3.91393 4.01315 4.02329 3.58919 3.93653L2.68786 3.75209C2.05532 3.62265 1.41093 3.91249 1.0881 4.47164L0.622366 5.27831C0.299544 5.83746 0.370734 6.54045 0.7991 7.02352L1.41037 7.71286C1.69681 8.03587 1.8206 8.46665 1.81376 8.89832C1.81268 8.96607 1.81268 9.03389 1.81376 9.10164C1.82059 9.53331 1.6968 9.96408 1.41037 10.2871L0.799101 10.9764C0.370734 11.4595 0.299544 12.1625 0.622366 12.7216L1.0881 13.5283C1.41093 14.0875 2.05532 14.3773 2.68786 14.2479L3.58913 14.0634C4.0131 13.9767 4.44874 14.086 4.81977 14.3088C4.87732 14.3433 4.93549 14.377 4.99424 14.4097C5.37187 14.62 5.68386 14.9423 5.82054 15.3523L6.1112 16.2243C6.31537 16.8369 6.88858 17.25 7.53423 17.25H8.4657C9.11135 17.25 9.68455 16.8369 9.88873 16.2243L10.1794 15.3523C10.3161 14.9423 10.6281 14.62 11.0057 14.4097C11.0644 14.377 11.1226 14.3433 11.1802 14.3088C11.5512 14.086 11.9868 13.9767 12.4108 14.0634L13.312 14.2479C13.9446 14.3773 14.589 14.0875 14.9118 13.5283L15.3775 12.7216C15.7003 12.1625 15.6292 11.4595 15.2008 10.9764L14.5896 10.2871C14.3031 9.96412 14.1793 9.53335 14.1862 9.10168C14.1872 9.0339 14.1872 8.96606 14.1862 8.89828C14.1793 8.46661 14.3031 8.03583 14.5896 7.71282L15.2008 7.02352C15.6292 6.54045 15.7003 5.83746 15.3775 5.27832L14.9118 4.47164C14.589 3.91249 13.9446 3.62265 13.312 3.75209L12.4107 3.93653C11.9868 4.02328 11.5511 3.91392 11.1801 3.69119C11.1226 3.65665 11.0644 3.62302 11.0057 3.59032C10.6281 3.38004 10.3161 3.0577 10.1794 2.64765L9.88873 1.77566C9.68455 1.16314 9.11135 0.75 8.4657 0.75H7.53423C6.88858 0.75 6.31537 1.16315 6.1112 1.77566L5.82054 2.64765ZM10.25 9C10.25 10.2426 9.24265 11.25 8.00001 11.25C6.75737 11.25 5.75001 10.2426 5.75001 9C5.75001 7.75736 6.75737 6.75 8.00001 6.75C9.24265 6.75 10.25 7.75736 10.25 9Z" fill="#808191"/>
</svg>
