<svg width="38" height="38" viewBox="0 0 38 38" fill="none" xmlns="http://www.w3.org/2000/svg">
<rect width="38" height="38" rx="5" fill="#006CE4"/>
<path fill-rule="evenodd" clip-rule="evenodd" d="M19 20.5C19.8284 20.5 20.5 19.8284 20.5 19C20.5 18.1716 19.8284 17.5 19 17.5C18.1716 17.5 17.5 18.1716 17.5 19C17.5 19.8284 18.1716 20.5 19 20.5ZM22 19C22 20.6569 20.6569 22 19 22C17.3431 22 16 20.6569 16 19C16 17.3431 17.3431 16 19 16C20.6569 16 22 17.3431 22 19Z" fill="#FCFCFC"/>
<path fill-rule="evenodd" clip-rule="evenodd" d="M18.5084 12.4545L18.2016 13.3001C17.9047 14.1182 17.2575 14.6875 16.5974 15.0251C16.5505 15.0491 16.504 15.0738 16.458 15.0992C15.8088 15.4572 14.9473 15.6881 14.0265 15.515L13.0751 15.3361L13.3925 13.9111L14.344 14.09C14.7915 14.1741 15.2514 14.0681 15.643 13.8521C15.7038 13.8186 15.7651 13.786 15.8271 13.7542C16.2258 13.5503 16.5551 13.2378 16.6994 12.8401L17.0062 11.9946C17.2218 11.4006 17.8268 11 18.5084 11H19.4917C20.1732 11 20.7783 11.4006 20.9938 11.9946L21.3006 12.8401C21.4449 13.2378 21.7743 13.5503 22.1729 13.7542C22.2349 13.786 22.2963 13.8186 22.357 13.8521C22.7487 14.068 23.2085 14.1741 23.6561 14.09L24.6075 13.9111C25.2752 13.7856 25.9554 14.0667 26.2962 14.6089L26.7878 15.3911C27.1286 15.9333 27.0535 16.615 26.6013 17.0834L25.9561 17.7518C25.6537 18.0651 25.523 18.4828 25.5302 18.9014C25.5314 18.9671 25.5314 19.0329 25.5302 19.0986C25.523 19.5172 25.6537 19.9349 25.9561 20.2481L26.6013 20.9165C27.0535 21.385 27.1286 22.0667 26.7878 22.6089L26.2962 23.3911C25.9554 23.9333 25.2752 24.2144 24.6075 24.0888L23.6561 23.91C23.2086 23.8259 22.7487 23.9319 22.3571 24.1479C22.2963 24.1814 22.2349 24.214 22.1729 24.2458C21.7743 24.4497 21.4449 24.7622 21.3006 25.1599L20.9938 26.0054C20.7783 26.5994 20.1732 27 19.4917 27H18.5084C17.8268 27 17.2218 26.5994 17.0062 26.0054L16.6994 25.1599C16.5551 24.7622 16.2258 24.4497 15.8271 24.2458C15.7651 24.214 15.7037 24.1814 15.643 24.1479C15.2513 23.9319 14.7914 23.8259 14.3439 23.91L13.3925 24.0888C12.7248 24.2144 12.0446 23.9333 11.7038 23.3911L11.2122 22.6089C10.8714 22.0667 10.9465 21.385 11.3987 20.9165L12.5834 21.8816L13.0751 22.6638L14.0265 22.485C14.9473 22.3119 15.8088 22.5428 16.458 22.9008C16.504 22.9262 16.5505 22.9509 16.5974 22.9749C17.2575 23.3125 17.9047 23.8818 18.2016 24.6999L18.5084 25.5455L19.4917 25.5455L19.7985 24.6999C20.0953 23.8818 20.7425 23.3125 21.4026 22.9749C21.4495 22.9509 21.496 22.9262 21.5421 22.9008C22.1913 22.5428 23.0528 22.3119 23.9736 22.485L24.9249 22.6638L25.4166 21.8816L24.7713 21.2132C24.15 20.5696 23.935 19.7713 23.947 19.0756C23.9479 19.0252 23.9479 18.9748 23.947 18.9244C23.935 18.2286 24.15 17.4304 24.7713 16.7868L25.4166 16.1184L24.9249 15.3361L23.9735 15.515C23.0527 15.6881 22.1912 15.4572 21.542 15.0992C21.496 15.0738 21.4495 15.0491 21.4026 15.0251C20.7425 14.6875 20.0953 14.1182 19.7985 13.3001L19.4917 12.4545L18.5084 12.4545ZM11.3987 20.9165L12.5834 21.8816L13.2287 21.2131C13.85 20.5695 14.065 19.7713 14.053 19.0755C14.0521 19.0252 14.0521 18.9748 14.053 18.9244C14.065 18.2287 13.85 17.4304 13.2287 16.7868L12.5834 16.1184L13.0751 15.3361L13.3925 13.9111C12.7248 13.7856 12.0446 14.0667 11.7038 14.6089L11.2122 15.3911C10.8714 15.9333 10.9465 16.615 11.3987 17.0834L12.044 17.7519C12.3463 18.0651 12.477 18.4828 12.4698 18.9014C12.4687 18.9671 12.4687 19.0329 12.4698 19.0986C12.477 19.5172 12.3463 19.9349 12.044 20.2481L11.3987 20.9165Z" fill="#FCFCFC"/>
</svg>
