<svg width="20" height="19" viewBox="0 0 20 19" fill="none" xmlns="http://www.w3.org/2000/svg">
<path d="M8.13592 1.34334C8.75851 -0.447779 11.2916 -0.447781 11.9142 1.34334L12.8597 4.0635C13.1344 4.85364 13.8717 5.38938 14.7081 5.40642L17.5873 5.4651C19.4831 5.50373 20.2659 7.91282 18.7548 9.05843L16.46 10.7983C15.7934 11.3036 15.5117 12.1705 15.754 12.9712L16.5879 15.7276C17.137 17.5426 15.0877 19.0315 13.5312 17.9484L11.1674 16.3035C10.4808 15.8257 9.56932 15.8257 8.88268 16.3035L6.51887 17.9484C4.96239 19.0315 2.91309 17.5426 3.4622 15.7276L4.29612 12.9712C4.53835 12.1705 4.2567 11.3036 3.5901 10.7983L1.29526 9.05843C-0.215802 7.91282 0.566957 5.50373 2.46281 5.4651L5.34201 5.40642C6.17835 5.38938 6.91574 4.85364 7.19039 4.0635L8.13592 1.34334Z" fill="#F2C94C"/>
</svg>
